<?xml version="1.0" encoding="UTF-8"?>
<svg xmlns="http://www.w3.org/2000/svg" width="1100" height="720" viewBox="0 0 1100 720" font-family="Segoe UI, Arial, sans-serif">
  <defs>
    <style>
      .title { font-size: 18px; font-weight: 700; fill: #1a1a2e; }
      .box-title { font-size: 12px; font-weight: 700; fill: #222; }
      .text { font-size: 11px; fill: #444; }
      .note { font-size: 10px; fill: #666; font-style: italic; }
      .flow { font-size: 10px; fill: #0078D4; font-weight: 600; }
    </style>
    <marker id="arrow" markerWidth="8" markerHeight="8" refX="6" refY="3" orient="auto">
      <path d="M0,0 L6,3 L0,6 Z" fill="#555"/>
    </marker>
    <marker id="arrow-blue" markerWidth="8" markerHeight="8" refX="5" refY="3.5" orient="auto">
      <polygon points="0 0, 7 3.5, 0 7" fill="#0078D4"/>
    </marker>
  </defs>

  <rect width="1100" height="720" fill="#f7f9fb"/>
  <text x="550" y="32" text-anchor="middle" class="title">Smart Office 2.0 - Schema logique reseau (VLANs)</text>
  <text x="550" y="52" text-anchor="middle" class="note">On-prem uniquement - pfSense 2.7 - Lab VMware - 10.20.0.0/16</text>

  <ellipse cx="550" cy="95" rx="95" ry="38" fill="#dae8fc" stroke="#6c8ebf" stroke-width="2"/>
  <text x="550" y="100" text-anchor="middle" class="box-title">INTERNET / FAI</text>

  <rect x="450" y="155" width="200" height="90" rx="8" fill="#f8cecc" stroke="#b85450" stroke-width="2"/>
  <text x="465" y="178" class="box-title">pfSense Firewall</text>
  <text x="465" y="196" class="text">WAN: DHCP (vmnet8)</text>
  <text x="465" y="212" class="text">LAN: 10.20.0.1/24</text>
  <text x="465" y="228" class="text">WireGuard WG_VPN 10.20.100.1/24</text>

  <rect x="430" y="268" width="240" height="48" rx="8" fill="#d5e8d4" stroke="#82b366" stroke-width="2"/>
  <text x="550" y="297" text-anchor="middle" class="box-title">Managed Switch (VLAN Trunk 802.1Q)</text>

  <rect x="50" y="380" width="140" height="80" rx="6" fill="#e1d5e7" stroke="#9673a6" stroke-width="2"/>
  <text x="62" y="402" class="box-title">VLAN 10 MGMT</text>
  <text x="62" y="420" class="text">10.20.10.0/24</text>
  <text x="62" y="436" class="text">Switches, ILO</text>

  <rect x="205" y="380" width="140" height="80" rx="6" fill="#d5e8d4" stroke="#82b366" stroke-width="2"/>
  <text x="217" y="402" class="box-title">VLAN 20 USERS</text>
  <text x="217" y="420" class="text">10.20.20.0/24</text>
  <text x="217" y="436" class="text">PC, imprimantes</text>

  <rect x="360" y="380" width="140" height="80" rx="6" fill="#d5e8d4" stroke="#82b366" stroke-width="2"/>
  <text x="372" y="402" class="box-title">VLAN 30 WIFI_STAFF</text>
  <text x="372" y="420" class="text">10.20.30.0/24</text>

  <rect x="515" y="380" width="140" height="80" rx="6" fill="#fff2cc" stroke="#d6b656" stroke-width="2"/>
  <text x="527" y="402" class="box-title">VLAN 40 GUEST</text>
  <text x="527" y="420" class="text">10.20.40.0/24</text>
  <text x="527" y="436" class="text">Isole (Internet)</text>

  <rect x="670" y="380" width="140" height="80" rx="6" fill="#f8cecc" stroke="#b85450" stroke-width="2"/>
  <text x="682" y="402" class="box-title">VLAN 50 SERVERS</text>
  <text x="682" y="420" class="text">10.20.50.0/24</text>
  <text x="682" y="436" class="text">AD, DB, App</text>

  <rect x="825" y="380" width="140" height="80" rx="6" fill="#ffe6cc" stroke="#d79b00" stroke-width="2"/>
  <text x="837" y="402" class="box-title">VLAN 60 DMZ</text>
  <text x="837" y="420" class="text">10.20.60.0/24</text>

  <!-- Sauvegardes alignees sous VLAN 50 (ligne droite) -->
  <ellipse cx="740" cy="565" rx="78" ry="42" fill="#eef4fc" stroke="#0078D4" stroke-width="2"/>
  <text x="740" y="557" text-anchor="middle" class="box-title">Sauvegardes cloud</text>
  <text x="740" y="573" text-anchor="middle" class="text">Azure Blob</text>
  <text x="740" y="589" text-anchor="middle" class="text">fichiers pg_dump</text>

  <!-- WireGuard : taille normale, entre VLAN 10 et 20 -->
  <rect x="97" y="510" width="200" height="76" rx="6" fill="#eef6ff" stroke="#0078D4" stroke-width="1.5" stroke-dasharray="5,3"/>
  <text x="112" y="532" class="box-title">Teletravail WireGuard</text>
  <text x="112" y="548" class="text">10.20.100.0/24</text>
  <text x="112" y="564" class="text">Acces VLAN 20 + 50</text>
  <text x="112" y="580" class="text">Endpoint 10.20.0.1:51820</text>

  <g id="connectors" fill="none">
    <line x1="550" y1="133" x2="550" y2="155" stroke="#555" stroke-width="2" marker-end="url(#arrow)"/>
    <line x1="550" y1="245" x2="550" y2="268" stroke="#555" stroke-width="2" marker-end="url(#arrow)"/>
    <circle cx="550" cy="268" r="4" fill="#555"/>
    <line x1="550" y1="316" x2="550" y2="348" stroke="#555" stroke-width="2"/>
    <circle cx="550" cy="316" r="4" fill="#82b366" stroke="#fff" stroke-width="1"/>
    <line x1="120" y1="348" x2="895" y2="348" stroke="#555" stroke-width="2"/>
    <circle cx="550" cy="348" r="4" fill="#555"/>

    <line x1="120" y1="348" x2="120" y2="380" stroke="#555" stroke-width="2" marker-end="url(#arrow)"/>
    <line x1="275" y1="348" x2="275" y2="380" stroke="#555" stroke-width="2" marker-end="url(#arrow)"/>
    <line x1="430" y1="348" x2="430" y2="380" stroke="#555" stroke-width="2" marker-end="url(#arrow)"/>
    <line x1="585" y1="348" x2="585" y2="380" stroke="#555" stroke-width="2" marker-end="url(#arrow)"/>
    <line x1="740" y1="348" x2="740" y2="380" stroke="#555" stroke-width="2" marker-end="url(#arrow)"/>
    <line x1="895" y1="348" x2="895" y2="380" stroke="#555" stroke-width="2" marker-end="url(#arrow)"/>

    <!-- WireGuard -> centre pfSense : une fleche seulement a l'arrivee -->
    <line x1="197" y1="510" x2="197" y2="200" stroke="#0078D4" stroke-width="2" stroke-dasharray="6,3"/>
    <line x1="197" y1="200" x2="550" y2="200" stroke="#0078D4" stroke-width="2" stroke-dasharray="6,3" marker-end="url(#arrow-blue)"/>
    <text x="210" y="350" class="flow">UDP 51820</text>
    <circle cx="197" cy="510" r="4" fill="#0078D4"/>

    <!-- VLAN 50 -> sauvegardes : ligne droite verticale -->
    <line x1="740" y1="460" x2="740" y2="523" stroke="#0078D4" stroke-width="2" stroke-dasharray="6,3" marker-end="url(#arrow-blue)"/>
    <text x="752" y="495" class="flow">Backup BDD</text>
  </g>
</svg>
