<?xml version="1.0" encoding="UTF-8"?>
<svg xmlns="http://www.w3.org/2000/svg" width="1200" height="720" viewBox="0 0 1200 720" font-family="Segoe UI, Arial, sans-serif">
  <defs>
    <style>
      .title { font-size: 18px; font-weight: 700; fill: #1a1a2e; }
      .zone-title { font-size: 13px; font-weight: 700; fill: #333; }
      .box-title { font-size: 12px; font-weight: 700; fill: #222; }
      .text { font-size: 11px; fill: #444; }
      .label { font-size: 10px; fill: #0078D4; font-weight: 600; }
      .note { font-size: 10px; fill: #666; font-style: italic; }
    </style>
    <marker id="arrow" markerWidth="8" markerHeight="8" refX="6" refY="3" orient="auto">
      <path d="M0,0 L6,3 L0,6 Z" fill="#555"/>
    </marker>
  </defs>
  <rect width="1200" height="720" fill="#f8fafc"/>
  <text x="600" y="32" text-anchor="middle" class="title">Smart Office 2.0 - Architecture hybride (PoC B3)</text>
  <text x="600" y="52" text-anchor="middle" class="note">Lab VMware local + Azure France Central - acces cloud via HTTPS (pas VPN site-to-site en PoC)</text>

  <rect x="40" y="75" width="1120" height="95" rx="8" fill="#eef6ff" stroke="#0078D4" stroke-width="1.5" stroke-dasharray="6,3"/>
  <text x="55" y="98" class="zone-title">Teletravail</text>
  <rect x="70" y="110" width="200" height="48" rx="6" fill="#fff" stroke="#0078D4"/>
  <text x="85" y="130" class="box-title">Laptop employe</text>
  <text x="85" y="148" class="text">WireGuard client 10.20.100.x</text>
  <line x1="270" y1="134" x2="340" y2="134" stroke="#555" stroke-width="1.5" marker-end="url(#arrow)"/>
  <text x="285" y="126" class="label">UDP 51820</text>
  <rect x="340" y="110" width="220" height="48" rx="6" fill="#fff" stroke="#D83B01"/>
  <text x="355" y="130" class="box-title">pfSense - WireGuard</text>
  <text x="355" y="148" class="text">10.20.100.1/24 - acces VLAN 20, 50</text>

  <rect x="40" y="185" width="700" height="280" rx="8" fill="#f0fdf4" stroke="#107C10" stroke-width="1.5"/>
  <text x="55" y="208" class="zone-title">On-Premise - Lab VMware (CachyOS)</text>
  <rect x="70" y="225" width="180" height="55" rx="6" fill="#fff" stroke="#107C10"/>
  <text x="85" y="245" class="box-title">Hote 10.20.0.254</text>
  <text x="85" y="263" class="text">vmnet2 (promiscuous)</text>
  <rect x="280" y="220" width="220" height="65" rx="6" fill="#fff" stroke="#D83B01" stroke-width="2"/>
  <text x="295" y="240" class="box-title">pfSense VM</text>
  <text x="295" y="256" class="text">WAN vmnet8 | LAN em1</text>
  <text x="295" y="272" class="text">10.20.0.1 + 6 VLAN 802.1Q</text>
  <rect x="70" y="300" width="95" height="42" rx="4" fill="#e1d5e7" stroke="#9673a6"/><text x="78" y="318" class="text">V10 MGMT</text><text x="78" y="332" class="text">.10.0/24</text>
  <rect x="175" y="300" width="95" height="42" rx="4" fill="#d5e8d4" stroke="#82b366"/><text x="183" y="318" class="text">V20 USERS</text><text x="183" y="332" class="text">.20.0/24</text>
  <rect x="280" y="300" width="95" height="42" rx="4" fill="#d5e8d4" stroke="#82b366"/><text x="288" y="318" class="text">V30 WIFI</text><text x="288" y="332" class="text">.30.0/24</text>
  <rect x="385" y="300" width="95" height="42" rx="4" fill="#fff2cc" stroke="#d6b656"/><text x="393" y="318" class="text">V40 GUEST</text><text x="393" y="332" class="text">.40.0/24</text>
  <rect x="490" y="300" width="95" height="42" rx="4" fill="#f8cecc" stroke="#b85450"/><text x="498" y="318" class="text">V50 SERV</text><text x="498" y="332" class="text">.50.0/24</text>
  <rect x="595" y="300" width="95" height="42" rx="4" fill="#ffe6cc" stroke="#d79b00"/><text x="603" y="318" class="text">V60 DMZ</text><text x="603" y="332" class="text">.60.0/24</text>
  <rect x="70" y="365" width="250" height="80" rx="6" fill="#fff" stroke="#666"/>
  <text x="85" y="385" class="box-title">Supervision PoC (Docker host)</text>
  <text x="85" y="403" class="text">Grafana + Loki + Promtail</text>
  <text x="85" y="419" class="text">Syslog pfSense UDP :1514</text>
  <line x1="500" y1="260" x2="195" y2="365" stroke="#555" stroke-width="1.2" stroke-dasharray="4,3" marker-end="url(#arrow)"/>
  <text x="320" y="310" class="label">syslog</text>

  <rect x="760" y="185" width="400" height="280" rx="8" fill="#eef4fc" stroke="#0078D4" stroke-width="1.5"/>
  <text x="775" y="208" class="zone-title">Cloud - Azure France Central</text>
  <rect x="785" y="225" width="170" height="50" rx="6" fill="#fff" stroke="#0078D4"/>
  <text x="800" y="245" class="box-title">Microsoft Entra ID</text>
  <text x="800" y="262" class="text">IAM / JWT / MFA (cible)</text>
  <rect x="975" y="225" width="165" height="50" rx="6" fill="#fff" stroke="#0078D4"/>
  <text x="990" y="245" class="box-title">ACR smartofficeynov</text>
  <text x="990" y="262" class="text">Images Docker</text>
  <rect x="785" y="290" width="355" height="70" rx="6" fill="#fff" stroke="#0078D4" stroke-width="2"/>
  <text x="800" y="310" class="box-title">ACI - room-booking</text>
  <text x="800" y="328" class="text">Flask + PostgreSQL + Redis (NoSQL cache)</text>
  <text x="800" y="346" class="text">FQDN public HTTPS :8080</text>
  <rect x="785" y="375" width="170" height="45" rx="6" fill="#fff" stroke="#0078D4" stroke-dasharray="5,3"/>
  <text x="800" y="395" class="box-title">Azure Blob</text>
  <text x="800" y="411" class="text">Backups pg_dump (prod)</text>

  <rect x="40" y="485" width="1120" height="90" rx="8" fill="#faf5ff" stroke="#5b21b6" stroke-width="1.5"/>
  <text x="55" y="508" class="zone-title">DevOps / CI-CD</text>
  <rect x="70" y="525" width="150" height="40" rx="6" fill="#fff" stroke="#333"/>
  <text x="85" y="550" class="text">GitHub Actions</text>
  <line x1="220" y1="545" x2="280" y2="545" stroke="#555" stroke-width="1.5" marker-end="url(#arrow)"/>
  <rect x="280" y="525" width="130" height="40" rx="6" fill="#fff" stroke="#0078D4"/>
  <text x="295" y="550" class="text">Push ACR</text>
  <line x1="410" y1="545" x2="470" y2="545" stroke="#555" stroke-width="1.5" marker-end="url(#arrow)"/>
  <rect x="470" y="525" width="130" height="40" rx="6" fill="#fff" stroke="#0078D4"/>
  <text x="485" y="550" class="text">Deploy ACI</text>
  <line x1="750" y1="360" x2="750" y2="485" stroke="#0078D4" stroke-width="1.5" stroke-dasharray="6,3" marker-end="url(#arrow)"/>
  <text x="760" y="430" class="label">HTTPS + JWT</text>
  <line x1="400" y1="285" x2="785" y2="325" stroke="#0078D4" stroke-width="1.5" stroke-dasharray="6,3" marker-end="url(#arrow)"/>
  <text x="560" y="295" class="label">HTTPS (utilisateurs)</text>

  <text x="600" y="610" text-anchor="middle" class="note">Wazuh/SIEM complet = cible production - PoC supervision via Grafana/Loki</text>
  <text x="600" y="630" text-anchor="middle" class="text">Equipe : Flaujat Sam, Queudeville Alexandre - Ynov B3 INFRA 2026</text>
</svg>
